<svg version="1.1" id="Layer_1" xmlns="http://www.w3.org/2000/svg" xmlns:xlink="http://www.w3.org/1999/xlink" x="0px" y="0px"
	 width="100%" viewBox="0 0 2000 2000" enable-background="new 0 0 2000 2000" xml:space="preserve">
<path fill="#000000" opacity="1.000000" stroke="none" 
	d="
M1120.000000,2001.000000 
	C746.666687,2001.000000 373.833344,2001.000000 1.000000,2001.000000 
	C1.000000,1334.333374 1.000000,667.666687 1.000000,1.000000 
	C667.666687,1.000000 1334.333374,1.000000 2001.000000,1.000000 
	C2001.000000,667.666687 2001.000000,1334.333374 2001.000000,2001.000000 
	C1707.500000,2001.000000 1414.000000,2001.000000 1120.000000,2001.000000 
M1409.852905,1487.376709 
	C1409.820557,1487.006714 1409.788208,1486.636719 1409.941528,1485.311646 
	C1409.960449,1480.655518 1409.992310,1475.999390 1409.996094,1471.343262 
	C1410.029297,1430.267578 1410.057739,1389.191895 1410.874146,1348.368286 
	C1413.966797,1348.596436 1417.059326,1348.825562 1420.152100,1349.052612 
	C1428.994019,1349.701904 1437.851929,1351.030640 1446.673584,1350.822144 
	C1457.122437,1350.575195 1467.525635,1348.805176 1477.974487,1348.050781 
	C1492.940552,1346.970215 1507.302979,1343.269287 1521.646484,1339.126465 
	C1541.755981,1333.318604 1560.652100,1324.868042 1578.866333,1314.654175 
	C1598.533813,1303.625732 1616.430176,1290.219116 1632.676147,1274.682861 
	C1639.919922,1267.755615 1646.389160,1260.000244 1653.016113,1252.450439 
	C1665.352295,1238.395996 1675.234253,1222.647217 1684.244385,1206.331787 
	C1694.170044,1188.358154 1701.225464,1169.204102 1706.724243,1149.503662 
	C1711.846802,1131.150391 1715.136963,1112.327148 1715.762695,1093.331299 
	C1716.277710,1077.699463 1715.255615,1061.943970 1713.821289,1046.343872 
	C1712.681885,1033.951660 1710.922852,1021.425171 1707.613403,1009.463318 
	C1700.788574,984.794373 1691.606201,961.008667 1678.097290,938.986633 
	C1663.670776,915.468445 1647.017090,893.978333 1626.269043,875.632996 
	C1611.743896,862.790161 1596.266357,851.481628 1579.505127,841.720093 
	C1561.854126,831.440308 1543.323242,823.103943 1523.915405,817.195129 
	C1495.702271,808.605652 1466.641113,804.472229 1437.067505,805.073059 
	C1428.051880,805.256165 1419.054199,806.325439 1410.010254,806.053589 
	C1410.006226,699.356079 1410.003906,592.658569 1409.993896,485.961090 
	C1409.993286,478.972290 1409.932495,471.983521 1409.996216,464.058807 
	C1409.995117,418.539764 1410.005005,373.020721 1409.953247,327.501709 
	C1409.951172,325.630981 1409.369629,323.760895 1408.980225,321.036530 
	C1406.451782,291.010742 1381.202515,264.990204 1349.443970,261.317169 
	C1347.955688,261.213104 1346.467529,261.017975 1344.979248,261.017883 
	C1115.832031,261.004150 886.684814,261.002716 657.537598,261.042419 
	C655.987366,261.042694 654.437256,261.619629 652.041199,262.011932 
	C643.194580,262.287659 634.676636,264.839020 627.463013,269.373810 
	C606.091248,282.809082 593.185486,301.744873 592.246887,328.431549 
	C592.153137,339.914001 592.059387,351.396423 591.039490,362.984375 
	C578.095764,363.986969 565.146667,364.925018 552.209717,366.007904 
	C534.653564,367.477448 517.665894,371.701508 500.955963,377.071381 
	C479.628540,383.925140 459.227966,392.822815 439.707397,403.937836 
	C416.978180,416.879822 396.479828,432.673126 377.847656,450.852997 
	C369.268768,459.223694 361.157623,468.243011 353.949982,477.808838 
	C343.899719,491.147308 333.948608,504.730316 325.652527,519.183044 
	C311.240448,544.290527 300.449127,571.109131 294.358185,599.499634 
	C291.119843,614.593872 287.906433,629.961609 287.362549,645.300903 
	C286.607544,666.595764 285.085052,688.111328 289.058044,709.316162 
	C292.011292,725.078369 294.776093,740.938416 298.962921,756.392395 
	C305.465576,780.394348 315.382965,803.091736 328.117279,824.530457 
	C340.166656,844.816040 353.827545,863.903381 370.381775,880.736694 
	C379.179596,889.682739 388.582458,898.054321 397.970703,906.394226 
	C412.509796,919.309937 428.907623,929.623596 445.892212,938.912170 
	C469.147125,951.629944 493.712646,961.354736 519.462769,967.582886 
	C533.337891,970.938965 547.566895,973.067932 561.750366,974.833496 
	C571.732727,976.076172 581.907349,975.774353 592.000061,977.079224 
	C591.994934,1056.671875 591.989807,1136.264404 591.147156,1215.984253 
	C588.325195,1216.648438 585.527161,1217.446777 582.677368,1217.954834 
	C563.872803,1221.306641 545.849365,1227.098633 528.436768,1234.921265 
	C493.713531,1250.520874 464.429199,1273.155396 440.679169,1302.866699 
	C424.213470,1323.465454 411.396820,1346.132446 402.417877,1371.006104 
	C395.504089,1390.158936 391.085541,1409.874512 389.192657,1430.043701 
	C388.137939,1441.282227 388.358368,1452.746460 389.165619,1464.025879 
	C390.129150,1477.488159 391.587341,1491.006958 394.162933,1504.242188 
	C399.140198,1529.818604 409.016968,1553.742554 422.593903,1575.884155 
	C436.395203,1598.391724 452.885620,1618.930420 473.907562,1635.219238 
	C485.405762,1644.128540 497.252380,1652.795654 509.795624,1660.107422 
	C539.141235,1677.213623 571.172607,1686.827271 604.923584,1689.771240 
	C619.285706,1691.023926 633.863403,1689.805664 649.230164,1689.822876 
	C652.228149,1689.881958 655.226196,1689.992554 658.224182,1689.992676 
	C885.825623,1690.000854 1113.427246,1689.927002 1341.028442,1690.156860 
	C1356.938477,1690.172974 1371.094849,1686.181519 1383.273804,1676.492554 
	C1398.074951,1664.717407 1407.793091,1649.635376 1409.751221,1629.573120 
	C1409.838379,1626.253784 1410.000244,1622.934448 1410.001587,1619.615112 
	C1410.018799,1577.540527 1410.016113,1535.465820 1410.002197,1493.391235 
	C1410.001587,1491.570312 1409.844604,1489.749512 1409.852905,1487.376709 
z"/>
<path fill="#446C9E" opacity="1.000000" stroke="none" 
	d="
M591.984680,1215.857056 
	C591.989807,1136.264404 591.994934,1056.671875 592.461060,976.558350 
	C611.954590,974.170593 631.272644,973.783813 649.969788,970.177734 
	C726.146240,955.486023 788.429993,917.382874 835.813904,855.811340 
	C872.908386,807.610046 893.707886,752.886047 897.984558,692.176697 
	C899.033875,677.280823 898.856812,662.206116 897.994019,647.285889 
	C895.746582,608.419373 885.338684,571.580566 868.623596,536.482056 
	C856.288635,510.581207 840.057861,487.280212 821.765442,465.619232 
	C825.222046,465.534454 828.220825,465.459717 831.219604,465.459656 
	C1021.197937,465.454102 1211.176270,465.456055 1401.154541,465.440491 
	C1403.811401,465.440277 1406.468140,465.227264 1409.321899,465.105286 
	C1409.518799,465.096985 1409.899536,464.994720 1409.899536,464.994720 
	C1409.932495,471.983521 1409.993286,478.972290 1409.993896,485.961090 
	C1410.003906,592.658569 1410.006226,699.356079 1409.801880,806.848389 
	C1407.306641,808.068298 1405.029541,808.558472 1402.731323,808.909058 
	C1352.261475,816.607971 1306.697510,836.191345 1268.526611,869.859314 
	C1187.270264,941.530334 1156.320435,1031.541260 1178.413940,1137.783569 
	C1192.668579,1206.330688 1230.466064,1260.721558 1287.803833,1301.074341 
	C1324.558594,1326.941162 1365.460693,1342.483887 1410.087524,1348.116211 
	C1410.057739,1389.191895 1410.029297,1430.267578 1409.996094,1471.343262 
	C1409.992310,1475.999390 1409.960449,1480.655518 1409.394531,1485.779053 
	C1406.015747,1486.218506 1403.183838,1486.165771 1400.351929,1486.165649 
	C1221.236206,1486.157349 1042.120605,1486.153320 862.958496,1485.691650 
	C863.586060,1477.008545 864.851501,1468.778442 864.792908,1460.557739 
	C864.709045,1448.793945 863.732056,1437.032349 863.002930,1425.278076 
	C861.595703,1402.591553 855.730530,1380.862427 846.495728,1360.313354 
	C810.121338,1279.373535 748.392212,1231.017700 660.333008,1216.890381 
	C644.338440,1214.324341 628.412659,1213.145874 612.261597,1214.909668 
	C605.548157,1215.642700 598.746338,1215.565674 591.984680,1215.857056 
z"/>
<path fill="#F47F8F" opacity="1.000000" stroke="none" 
	d="
M821.307617,465.664124 
	C840.057861,487.280212 856.288635,510.581207 868.623596,536.482056 
	C885.338684,571.580566 895.746582,608.419373 897.994019,647.285889 
	C898.856812,662.206116 899.033875,677.280823 897.984558,692.176697 
	C893.707886,752.886047 872.908386,807.610046 835.813904,855.811340 
	C788.429993,917.382874 726.146240,955.486023 649.969788,970.177734 
	C631.272644,973.783813 611.954590,974.170593 592.459045,976.099792 
	C581.907349,975.774353 571.732727,976.076172 561.750366,974.833496 
	C547.566895,973.067932 533.337891,970.938965 519.462769,967.582886 
	C493.712646,961.354736 469.147125,951.629944 445.892212,938.912170 
	C428.907623,929.623596 412.509796,919.309937 397.970703,906.394226 
	C388.582458,898.054321 379.179596,889.682739 370.381775,880.736694 
	C353.827545,863.903381 340.166656,844.816040 328.117279,824.530457 
	C315.382965,803.091736 305.465576,780.394348 298.962921,756.392395 
	C294.776093,740.938416 292.011292,725.078369 289.058044,709.316162 
	C285.085052,688.111328 286.607544,666.595764 287.362549,645.300903 
	C287.906433,629.961609 291.119843,614.593872 294.358185,599.499634 
	C300.449127,571.109131 311.240448,544.290527 325.652527,519.183044 
	C333.948608,504.730316 343.899719,491.147308 353.949982,477.808838 
	C361.157623,468.243011 369.268768,459.223694 377.847656,450.852997 
	C396.479828,432.673126 416.978180,416.879822 439.707397,403.937836 
	C459.227966,392.822815 479.628540,383.925140 500.955963,377.071381 
	C517.665894,371.701508 534.653564,367.477448 552.209717,366.007904 
	C565.146667,364.925018 578.095764,363.986969 591.714844,363.021301 
	C592.390198,363.058197 592.841675,363.150330 593.160461,363.441040 
	C602.781311,364.129272 612.106873,364.233978 621.381409,364.975861 
	C658.495300,367.944641 693.594482,378.356567 727.015198,394.500214 
	C763.141846,411.950928 794.389709,435.963013 821.307617,465.664124 
M665.746155,693.228027 
	C682.792236,683.397644 699.838318,673.567261 717.757751,663.233276 
	C641.791382,619.345886 566.911072,576.085938 491.249695,532.374756 
	C491.249695,620.021240 491.249695,706.497681 491.249695,793.917053 
	C549.585571,760.261780 607.352417,726.934814 665.746155,693.228027 
z"/>
<path fill="#98D6FC" opacity="1.000000" stroke="none" 
	d="
M1410.480835,1348.242188 
	C1365.460693,1342.483887 1324.558594,1326.941162 1287.803833,1301.074341 
	C1230.466064,1260.721558 1192.668579,1206.330688 1178.413940,1137.783569 
	C1156.320435,1031.541260 1187.270264,941.530334 1268.526611,869.859314 
	C1306.697510,836.191345 1352.261475,816.607971 1402.731323,808.909058 
	C1405.029541,808.558472 1407.306641,808.068298 1409.820923,807.315979 
	C1419.054199,806.325439 1428.051880,805.256165 1437.067505,805.073059 
	C1466.641113,804.472229 1495.702271,808.605652 1523.915405,817.195129 
	C1543.323242,823.103943 1561.854126,831.440308 1579.505127,841.720093 
	C1596.266357,851.481628 1611.743896,862.790161 1626.269043,875.632996 
	C1647.017090,893.978333 1663.670776,915.468445 1678.097290,938.986633 
	C1691.606201,961.008667 1700.788574,984.794373 1707.613403,1009.463318 
	C1710.922852,1021.425171 1712.681885,1033.951660 1713.821289,1046.343872 
	C1715.255615,1061.943970 1716.277710,1077.699463 1715.762695,1093.331299 
	C1715.136963,1112.327148 1711.846802,1131.150391 1706.724243,1149.503662 
	C1701.225464,1169.204102 1694.170044,1188.358154 1684.244385,1206.331787 
	C1675.234253,1222.647217 1665.352295,1238.395996 1653.016113,1252.450439 
	C1646.389160,1260.000244 1639.919922,1267.755615 1632.676147,1274.682861 
	C1616.430176,1290.219116 1598.533813,1303.625732 1578.866333,1314.654175 
	C1560.652100,1324.868042 1541.755981,1333.318604 1521.646484,1339.126465 
	C1507.302979,1343.269287 1492.940552,1346.970215 1477.974487,1348.050781 
	C1467.525635,1348.805176 1457.122437,1350.575195 1446.673584,1350.822144 
	C1437.851929,1351.030640 1428.994019,1349.701904 1420.152100,1349.052612 
	C1417.059326,1348.825562 1413.966797,1348.596436 1410.480835,1348.242188 
M1341.239014,1003.505371 
	C1341.241577,1050.491577 1341.095337,1097.478516 1341.292358,1144.463867 
	C1341.459351,1184.275146 1371.389648,1213.933350 1411.042358,1213.993530 
	C1432.869263,1214.026611 1454.696411,1214.042725 1476.523193,1213.989136 
	C1515.116699,1213.894165 1544.991211,1184.525757 1545.706055,1145.901245 
	C1545.909546,1134.908325 1545.925293,1123.904785 1545.708618,1112.912354 
	C1544.998169,1076.856689 1520.905884,1049.201660 1485.211548,1044.600342 
	C1473.564697,1043.098999 1461.586792,1043.880005 1449.770142,1044.115845 
	C1444.738281,1044.216187 1443.107666,1042.729736 1443.192993,1037.646851 
	C1443.453125,1022.156433 1443.474976,1006.653564 1443.166016,991.164062 
	C1442.739502,969.776123 1428.730957,951.056702 1408.955566,944.818359 
	C1386.973877,937.884094 1364.587280,944.853210 1351.412231,962.664001 
	C1342.598877,974.578430 1340.668091,988.215698 1341.239014,1003.505371 
z"/>
<path fill="#FBE639" opacity="1.000000" stroke="none" 
	d="
M591.565918,1215.920654 
	C598.746338,1215.565674 605.548157,1215.642700 612.261597,1214.909668 
	C628.412659,1213.145874 644.338440,1214.324341 660.333008,1216.890381 
	C748.392212,1231.017700 810.121338,1279.373535 846.495728,1360.313354 
	C855.730530,1380.862427 861.595703,1402.591553 863.002930,1425.278076 
	C863.732056,1437.032349 864.709045,1448.793945 864.792908,1460.557739 
	C864.851501,1468.778442 863.586060,1477.008545 862.765015,1486.022949 
	C860.010742,1498.274536 858.309143,1510.035400 854.652771,1521.153320 
	C826.112061,1607.937134 767.272705,1662.399048 678.653870,1684.490967 
	C668.733154,1686.963989 658.455322,1688.005127 648.343140,1689.710327 
	C633.863403,1689.805664 619.285706,1691.023926 604.923584,1689.771240 
	C571.172607,1686.827271 539.141235,1677.213623 509.795624,1660.107422 
	C497.252380,1652.795654 485.405762,1644.128540 473.907562,1635.219238 
	C452.885620,1618.930420 436.395203,1598.391724 422.593903,1575.884155 
	C409.016968,1553.742554 399.140198,1529.818604 394.162933,1504.242188 
	C391.587341,1491.006958 390.129150,1477.488159 389.165619,1464.025879 
	C388.358368,1452.746460 388.137939,1441.282227 389.192657,1430.043701 
	C391.085541,1409.874512 395.504089,1390.158936 402.417877,1371.006104 
	C411.396820,1346.132446 424.213470,1323.465454 440.679169,1302.866699 
	C464.429199,1273.155396 493.713531,1250.520874 528.436768,1234.921265 
	C545.849365,1227.098633 563.872803,1221.306641 582.677368,1217.954834 
	C585.527161,1217.446777 588.325195,1216.648438 591.565918,1215.920654 
M567.167480,1366.208740 
	C561.199646,1365.788696 555.191406,1364.706543 549.271362,1365.068237 
	C528.580017,1366.332886 513.133789,1375.910522 504.871674,1395.377197 
	C498.047272,1411.456909 499.710846,1427.712036 505.535492,1443.648804 
	C511.996246,1461.326050 522.821228,1476.245483 536.014160,1489.485962 
	C565.062073,1518.638794 594.179016,1547.722656 623.281433,1576.821167 
	C624.413818,1577.953369 625.685486,1578.946411 626.953308,1580.057861 
	C628.061157,1579.127441 628.868225,1578.547241 629.561646,1577.853394 
	C659.948181,1547.447266 690.482422,1517.185913 720.582397,1486.498657 
	C727.408508,1479.539185 733.331726,1471.487061 738.603577,1463.254761 
	C748.682556,1447.515991 754.544861,1430.397827 753.072266,1411.251099 
	C751.110474,1385.744263 731.407715,1366.281494 705.867249,1364.805908 
	C682.806885,1363.473633 663.227112,1372.212891 645.322571,1385.649658 
	C638.967773,1390.418579 633.022949,1395.733887 627.250061,1400.503052 
	C617.901550,1393.469727 608.947266,1386.301025 599.544189,1379.779297 
	C590.021973,1373.174683 579.372314,1368.830200 567.167480,1366.208740 
z"/>
<path fill="#98D6FC" opacity="1.000000" stroke="none" 
	d="
M821.765442,465.619232 
	C794.389709,435.963013 763.141846,411.950928 727.015198,394.500214 
	C693.594482,378.356567 658.495300,367.944641 621.381409,364.975861 
	C612.106873,364.233978 602.781311,364.129272 593.207031,362.964874 
	C592.932495,350.761108 592.930054,339.324188 592.927612,327.887299 
	C593.185486,301.744873 606.091248,282.809082 627.463013,269.373810 
	C634.676636,264.839020 643.194580,262.287659 652.936829,262.005157 
	C881.892761,261.998413 1109.953125,261.998749 1338.013428,261.995941 
	C1342.009644,261.995880 1346.005737,261.957642 1350.001953,261.937195 
	C1381.202515,264.990204 1406.451782,291.010742 1408.984375,321.938171 
	C1409.033936,370.264404 1409.079468,417.689026 1409.125000,465.113586 
	C1406.468140,465.227264 1403.811401,465.440277 1401.154541,465.440491 
	C1211.176270,465.456055 1021.197937,465.454102 831.219604,465.459656 
	C828.220825,465.459717 825.222046,465.534454 821.765442,465.619232 
M980.500122,329.455383 
	C945.351990,329.455261 910.203918,329.434052 875.055847,329.479584 
	C870.231506,329.485809 865.380920,329.563629 860.588257,330.054535 
	C842.689941,331.887787 829.265625,349.304108 831.338562,367.193359 
	C833.101135,382.404541 846.370239,397.655029 867.451599,397.580841 
	C951.239136,397.285889 1035.028442,397.502533 1118.817139,397.505615 
	C1125.810913,397.505890 1132.820068,397.587341 1139.795532,397.178711 
	C1155.938232,396.232971 1169.579346,383.011444 1170.955688,367.303833 
	C1172.486938,349.828827 1162.329956,334.746643 1145.769531,330.938538 
	C1140.011353,329.614410 1133.883179,329.527893 1127.922485,329.515076 
	C1079.115234,329.410034 1030.307617,329.455994 980.500122,329.455383 
z"/>
<path fill="#98D6FC" opacity="1.000000" stroke="none" 
	d="
M648.786621,1689.766602 
	C658.455322,1688.005127 668.733154,1686.963989 678.653870,1684.490967 
	C767.272705,1662.399048 826.112061,1607.937134 854.652771,1521.153320 
	C858.309143,1510.035400 860.010742,1498.274536 862.811401,1486.480225 
	C1042.120605,1486.153320 1221.236206,1486.157349 1400.351929,1486.165649 
	C1403.183838,1486.165771 1406.015747,1486.218506 1409.301758,1486.256592 
	C1409.788208,1486.636719 1409.820557,1487.006714 1409.630737,1488.030273 
	C1409.289551,1489.673096 1409.066528,1490.662109 1409.066284,1491.651245 
	C1409.051025,1537.801025 1409.055420,1583.950806 1409.057373,1630.100586 
	C1407.793091,1649.635376 1398.074951,1664.717407 1383.273804,1676.492554 
	C1371.094849,1686.181519 1356.938477,1690.172974 1341.028442,1690.156860 
	C1113.427246,1689.927002 885.825623,1690.000854 658.224182,1689.992676 
	C655.226196,1689.992554 652.228149,1689.881958 648.786621,1689.766602 
z"/>
<path fill="#6192C2" opacity="1.000000" stroke="none" 
	d="
M1349.722900,261.627197 
	C1346.005737,261.957642 1342.009644,261.995880 1338.013428,261.995941 
	C1109.953125,261.998749 881.892761,261.998413 653.359741,261.962860 
	C654.437256,261.619629 655.987366,261.042694 657.537598,261.042419 
	C886.684814,261.002716 1115.832031,261.004150 1344.979248,261.017883 
	C1346.467529,261.017975 1347.955688,261.213104 1349.722900,261.627197 
z"/>
<path fill="#6FA2CE" opacity="1.000000" stroke="none" 
	d="
M1409.321899,465.105286 
	C1409.079468,417.689026 1409.033936,370.264404 1409.023193,322.365173 
	C1409.369629,323.760895 1409.951172,325.630981 1409.953247,327.501709 
	C1410.005005,373.020721 1409.995117,418.539764 1409.947876,464.526764 
	C1409.899536,464.994720 1409.518799,465.096985 1409.321899,465.105286 
z"/>
<path fill="#6FA2CE" opacity="1.000000" stroke="none" 
	d="
M1409.404297,1629.836914 
	C1409.055420,1583.950806 1409.051025,1537.801025 1409.066284,1491.651245 
	C1409.066528,1490.662109 1409.289551,1489.673096 1409.584473,1488.306274 
	C1409.844604,1489.749512 1410.001587,1491.570312 1410.002197,1493.391235 
	C1410.016113,1535.465820 1410.018799,1577.540527 1410.001587,1619.615112 
	C1410.000244,1622.934448 1409.838379,1626.253784 1409.404297,1629.836914 
z"/>
<path fill="#6192C2" opacity="1.000000" stroke="none" 
	d="
M592.587280,328.159424 
	C592.930054,339.324188 592.932495,350.761108 592.888306,362.674164 
	C592.841675,363.150330 592.390198,363.058197 592.177917,362.968536 
	C592.059387,351.396423 592.153137,339.914001 592.587280,328.159424 
z"/>
<path fill="#F8F6F7" opacity="1.000000" stroke="none" 
	d="
M665.432739,693.417969 
	C607.352417,726.934814 549.585571,760.261780 491.249695,793.917053 
	C491.249695,706.497681 491.249695,620.021240 491.249695,532.374756 
	C566.911072,576.085938 641.791382,619.345886 717.757751,663.233276 
	C699.838318,673.567261 682.792236,683.397644 665.432739,693.417969 
z"/>
<path fill="#F8F6F7" opacity="1.000000" stroke="none" 
	d="
M1341.239502,1003.006958 
	C1340.668091,988.215698 1342.598877,974.578430 1351.412231,962.664001 
	C1364.587280,944.853210 1386.973877,937.884094 1408.955566,944.818359 
	C1428.730957,951.056702 1442.739502,969.776123 1443.166016,991.164062 
	C1443.474976,1006.653564 1443.453125,1022.156433 1443.192993,1037.646851 
	C1443.107666,1042.729736 1444.738281,1044.216187 1449.770142,1044.115845 
	C1461.586792,1043.880005 1473.564697,1043.098999 1485.211548,1044.600342 
	C1520.905884,1049.201660 1544.998169,1076.856689 1545.708618,1112.912354 
	C1545.925293,1123.904785 1545.909546,1134.908325 1545.706055,1145.901245 
	C1544.991211,1184.525757 1515.116699,1213.894165 1476.523193,1213.989136 
	C1454.696411,1214.042725 1432.869263,1214.026611 1411.042358,1213.993530 
	C1371.389648,1213.933350 1341.459351,1184.275146 1341.292358,1144.463867 
	C1341.095337,1097.478516 1341.241577,1050.491577 1341.239502,1003.006958 
z"/>
<path fill="#F47F8F" opacity="1.000000" stroke="none" 
	d="
M567.585449,1366.290283 
	C579.372314,1368.830200 590.021973,1373.174683 599.544189,1379.779297 
	C608.947266,1386.301025 617.901550,1393.469727 627.250061,1400.503052 
	C633.022949,1395.733887 638.967773,1390.418579 645.322571,1385.649658 
	C663.227112,1372.212891 682.806885,1363.473633 705.867249,1364.805908 
	C731.407715,1366.281494 751.110474,1385.744263 753.072266,1411.251099 
	C754.544861,1430.397827 748.682556,1447.515991 738.603577,1463.254761 
	C733.331726,1471.487061 727.408508,1479.539185 720.582397,1486.498657 
	C690.482422,1517.185913 659.948181,1547.447266 629.561646,1577.853394 
	C628.868225,1578.547241 628.061157,1579.127441 626.953308,1580.057861 
	C625.685486,1578.946411 624.413818,1577.953369 623.281433,1576.821167 
	C594.179016,1547.722656 565.062073,1518.638794 536.014160,1489.485962 
	C522.821228,1476.245483 511.996246,1461.326050 505.535492,1443.648804 
	C499.710846,1427.712036 498.047272,1411.456909 504.871674,1395.377197 
	C513.133789,1375.910522 528.580017,1366.332886 549.271362,1365.068237 
	C555.191406,1364.706543 561.199646,1365.788696 567.585449,1366.290283 
z"/>
<path fill="#446C9E" opacity="1.000000" stroke="none" 
	d="
M981.000122,329.455750 
	C1030.307617,329.455994 1079.115234,329.410034 1127.922485,329.515076 
	C1133.883179,329.527893 1140.011353,329.614410 1145.769531,330.938538 
	C1162.329956,334.746643 1172.486938,349.828827 1170.955688,367.303833 
	C1169.579346,383.011444 1155.938232,396.232971 1139.795532,397.178711 
	C1132.820068,397.587341 1125.810913,397.505890 1118.817139,397.505615 
	C1035.028442,397.502533 951.239136,397.285889 867.451599,397.580841 
	C846.370239,397.655029 833.101135,382.404541 831.338562,367.193359 
	C829.265625,349.304108 842.689941,331.887787 860.588257,330.054535 
	C865.380920,329.563629 870.231506,329.485809 875.055847,329.479584 
	C910.203918,329.434052 945.351990,329.455261 981.000122,329.455750 
z"/>
</svg>